<?xml version="1.0" standalone="no"?><!DOCTYPE svg PUBLIC "-//W3C//DTD SVG 1.1//EN" "http://www.w3.org/Graphics/SVG/1.1/DTD/svg11.dtd"><svg t="1576572211837" class="icon" viewBox="0 0 1024 1024" version="1.1" xmlns="http://www.w3.org/2000/svg" p-id="8135" xmlns:xlink="http://www.w3.org/1999/xlink" width="48" height="48"><defs><style type="text/css"></style></defs><path d="M868.100096 742.600704l-0.049152 0L216.246272 742.600704l-0.049152 0c-13.98784 0-25.327616 11.33568-25.327616 25.352192 0 13.993984 11.360256 25.327616 25.327616 25.327616l0.049152 0 651.804672 0 0.049152 0c13.996032 0 25.33376-11.333632 25.33376-25.327616C893.431808 753.936384 882.096128 742.600704 868.100096 742.600704L868.100096 742.600704 868.100096 742.600704M523.15136 688.433152c4.728832 4.757504 11.237376 7.733248 18.47296 7.733248l0 0 0 0c7.231488 0 13.740032-2.951168 18.42176-7.757824l314.836992-314.83904c4.732928-4.704256 7.714816-11.214848 7.7312-18.395136 0-14.342144-11.712512-25.9584-25.972736-25.9584-7.213056-0.02048-13.694976 2.930688-18.376704 7.636992L567.578624 607.51872 567.578624 117.52448c-0.024576-0.026624-0.024576-0.026624-0.024576-0.0512 0.024576-14.344192-11.59168-25.980928-25.901056-25.980928-14.348288 0-25.960448 11.634688-25.960448 25.980928 0 0 0 0.024576 0.024576 0.0512l0 489.967616L245.055488 336.826368c-4.683776-4.704256-11.2128-7.6288-18.374656-7.60832-14.342144-0.02048-25.954304 11.614208-26.005504 25.9072 0 7.20896 2.951168 13.768704 7.684096 18.423808L523.15136 688.433152 523.15136 688.433152 523.15136 688.433152M523.15136 688.433152 523.15136 688.433152z" p-id="8136"></path></svg>