<?xml version="1.0" standalone="no"?><!DOCTYPE svg PUBLIC "-//W3C//DTD SVG 1.1//EN" "http://www.w3.org/Graphics/SVG/1.1/DTD/svg11.dtd"><svg t="1576202078596" class="icon" viewBox="0 0 1024 1024" version="1.1" xmlns="http://www.w3.org/2000/svg" p-id="1108" xmlns:xlink="http://www.w3.org/1999/xlink" width="200" height="200"><defs><style type="text/css"></style></defs><path d="M512 960c-234.394624 0-425.10336-190.708736-425.10336-425.10336S277.605376 109.79328 512 109.79328c116.878336 0 225.772544 46.432256 306.69312 130.737152 9.644032 10.027008 44.068864 47.517696 52.627456 58.438656 11.113472 14.242816 8.558592 34.807808-5.684224 45.92128-14.306304 11.113472-34.87232 8.49408-45.92128-5.684224-7.791616-10.027008-39.406592-44.196864-48.156672-53.32992C703.028224 214.472704 610.8672 175.194112 512 175.194112c-198.308864 0-359.702528 161.393664-359.702528 359.702528S313.691136 894.599168 512 894.599168 871.702528 733.205504 871.702528 534.89664c0-18.074624 14.625792-32.700416 32.700416-32.700416s32.700416 14.625792 32.700416 32.700416c0 234.394624-190.708736 425.10336-425.10336 425.10336z" p-id="1109"></path><path d="M838.683648 371.395584H623.194112c-18.074624 0-32.700416-14.625792-32.700416-32.700416s14.625792-32.700416 32.700416-32.700416h209.294336V96.700416c0-18.074624 14.625792-32.700416 32.700416-32.700416s32.700416 14.625792 32.700416 32.700416v215.489536c-0.001024 32.635904-26.569728 59.205632-59.205632 59.205632z" p-id="1110"></path></svg>